<?xml version="1.0" encoding="UTF-8"?>
<svg xmlns="http://www.w3.org/2000/svg" width="100px" height="11px" version="1.1">
<title>subtub logo</title>
<desc>The logo repository can be found at https://github.com/subtub/subtub.media/</desc>
<path d="M 66.97018,11.159998 V 7.8667038 h 4.687045 V 11.159998 H 66.97018 z m 14.281639,0 V 7.8667038 h -4.68764 v 3.2932942 h 4.68764 z m -17.930354,0 V 7.8667038 h -5.631468 v -4.876642 l -4.687639,0.755419 v 7.4145172 h 10.319107 z m 36.678535,0 c -0.23418,-0.466565 -0.50579,-0.893903 -0.81664,-1.2802302 -0.608614,-0.754825 -1.364033,-1.337288 -2.265662,-1.746201 -0.902223,-0.408913 -1.940553,-0.612775 -3.114394,-0.612775 -0.650813,0 -1.258239,0.06241 -1.824061,0.187815 -0.566415,0.126597 -1.112029,0.304307 -1.636245,0.534915 V 0.00107483 l -4.687045,0.755419 V 11.159404 H 100 z m -70.243862,0 V 7.8667038 h -4.68764 v 3.2932942 h 4.68764 z m -9.595188,0 V 7.8667038 h -4.68764 v 3.2932942 h 4.68764 z m -9.391326,0 0.646058,-2.8849752 C 10.870069,8.0658108 10.136641,7.8708648 9.213615,7.6931538 8.2905895,7.5142548 7.3259593,7.4251018 6.3197246,7.4251018 c -2.0136582,0 -3.5970068,0.451706 -4.750046,1.353335 C 0.76076812,9.4108258 0.24190052,10.206066 0,11.159404 h 10.769624 z m 37.734692,0 c -0.234768,-0.466565 -0.506386,-0.893903 -0.817231,-1.2802302 -0.60802,-0.754825 -1.363439,-1.337288 -2.265068,-1.746201 -0.902223,-0.408913 -1.940553,-0.612775 -3.114394,-0.612775 -0.650813,0 -1.258239,0.06241 -1.824655,0.187815 -0.565821,0.126597 -1.111435,0.304307 -1.635651,0.534915 V 0.00107483 l -4.68764,0.755419 V 11.159404 h 14.344639 z"/>
</svg>